# xmcd
#
# Track frame offsets:
# 150
# 25830
# 47191
# 64149
# 84416
# 105749
# 123056
# 142153
#
# Disc length: 2233 seconds
#
#
# Revision: 0
# Processed by: cddbd v1.5.2PL0 Copyright (c) Steve Scherf et al.
# Submitted via: FreeRIP 2.945 
#
DISCID=6908b708
DTITLE=R.J.'s Lastest Arrival - R.J.'s Lastest Arrival
DYEAR=1900
DGENRE=R&B
TTITLE0=Swing Low
TTITLE1=Phase
TTITLE2=Work
TTITLE3=Get It Up
TTITLE4=Love Is A Rhythm
TTITLE5=Understanding
TTITLE6=Baby I'm Sorry
TTITLE7=Get Ahead
EXTD=
EXTT0=
EXTT1=
EXTT2=
EXTT3=
EXTT4=
EXTT5=
EXTT6=
EXTT7=
PLAYORDER=
